# xmcd CD database file
#
# Track frame offsets:
#	150
#	2089
#	20257
#	41747
#	62182
#	85889
#	105504
#	129999
#	149684
#	169600
#	186550
#	206685
#
# Disc length: 3064 seconds
#
# Revision: 6
# Processed by: cddbd v1.5.1PL0 Copyright (c) Steve Scherf et al.
# Submitted via: CDex 1.51
#
DISCID=a60bf60c
DTITLE=GALAXY ANGEL - ANGEL CHARGE
DYEAR=2004
DGENRE=ポップ
TTITLE0=Intro〜team mate〜
TTITLE1=b-b-LOVE!
TTITLE2=エキサイティング・ロボット
TTITLE3=LITTLE シークレット
TTITLE4=セレナーデ
TTITLE5=docchimo kocchimo
TTITLE6=no pain
TTITLE7=ブギウギ☆とらぶるメーカー
TTITLE8=セシルの朝
TTITLE9=花いろ日記
TTITLE10=Baby Don't Cry!
TTITLE11=チームメイト〜acoustic version〜
EXTD=
EXTT0=
EXTT1=
EXTT2=
EXTT3=
EXTT4=
EXTT5=
EXTT6=
EXTT7=
EXTT8=
EXTT9=
EXTT10=
EXTT11=
PLAYORDER=
